<?xml version="1.0" encoding="UTF-8"?>
<svg width="320px" height="320px" viewBox="0 0 320 320" version="1.1" xmlns="http://www.w3.org/2000/svg" xmlns:xlink="http://www.w3.org/1999/xlink">
    <rect fill="#28B8C8" x="0" y="0" width="320" height="320"></rect>
    <path d="M166,153.842707 L242.342707,153.842707 C245.656416,153.842707 248.342707,156.528999 248.342707,159.842707 C248.342707,163.156416 245.656416,165.842707 242.342707,165.842707 L166,165.842707 L166,242.185415 C166,245.499123 163.313708,248.185415 160,248.185415 C156.686292,248.185415 154,245.499123 154,242.185415 L154,165.842707 L77.6572926,165.842707 C74.3435841,165.842707 71.6572926,163.156416 71.6572926,159.842707 C71.6572926,156.528999 74.3435841,153.842707 77.6572926,153.842707 L154,153.842707 L154,77.5 C154,74.1862915 156.686292,71.5 160,71.5 C163.313708,71.5 166,74.1862915 166,77.5 L166,153.842707 Z" id="Path" fill="#FFFFFF" fill-rule="nonzero"></path>
</svg>